<?xml version="1.0" encoding="UTF-8"?>
<!DOCTYPE svg PUBLIC "-//W3C//DTD SVG 1.1//EN" "http://www.w3.org/Graphics/SVG/1.1/DTD/svg11.dtd">
<!-- Creator: CorelDRAW 2021 (64-Bit) -->
<svg xmlns="http://www.w3.org/2000/svg" xml:space="preserve" width="875px" height="1229px" version="1.1" style="shape-rendering:geometricPrecision; text-rendering:geometricPrecision; image-rendering:optimizeQuality; fill-rule:evenodd; clip-rule:evenodd"
viewBox="0 0 875 1229.17"
 xmlns:xlink="http://www.w3.org/1999/xlink">
 <defs>
  <style type="text/css">
   <![CDATA[
    .str0 {stroke:#444444;stroke-width:12.5;stroke-miterlimit:22.9256}
    .fil1 {fill:none}
    .fil0 {fill:#181818}
    .fil2 {fill:#444444;fill-rule:nonzero}
   ]]>
  </style>
 </defs>
 <g id="Capa_x0020_1">
  <polygon class="fil0" points="0,0 875,0 875,1229.17 0,1229.17 "/>
  <path class="fil1 str0" d="M312.41 406.28l46.04 -8.52 166.18 -30.78c20.52,-3.8 40.36,9.83 44.16,30.35l26.87 145.07c3.8,20.52 -9.84,40.36 -30.36,44.16l-212.23 39.3c-20.52,3.8 -40.35,-9.84 -44.15,-30.36l-26.87 -145.06c-3.8,-20.52 9.84,-40.36 30.36,-44.16z"/>
  <path class="fil1 str0" d="M438.26 437.71c32.06,0 58.04,25.99 58.04,58.05 0,32.05 -25.98,58.04 -58.04,58.04 -32.05,0 -58.04,-25.99 -58.04,-58.04 0,-32.06 25.99,-58.05 58.04,-58.05z"/>
  <line class="fil1 str0" x1="485.52" y1="529.46" x2="391.25" y2= "462.64" />
  <path class="fil1 str0" d="M404.08 273.81c12.92,0 23.4,10.48 23.4,23.4 0,12.92 -10.48,23.39 -23.4,23.39 -12.92,0 -23.39,-10.47 -23.39,-23.39 0,-12.92 10.47,-23.4 23.39,-23.4z"/>
  <line class="fil1 str0" x1="387.95" y1="314.15" x2="354.89" y2= "398.41" />
  <line class="fil1 str0" x1="423.41" y1="306.42" x2="482.81" y2= "374.72" />
  <path class="fil2" d="M151.95 810.39l5.77 0 0 -25.03c0,-5.03 -0.44,-10.14 -0.73,-14.96l0.29 0 5.18 9.86 17.3 30.13 6.27 0 0 -47.87 -5.76 0 0 24.74c0,5.04 0.51,10.44 0.8,15.25l-0.29 0 -5.18 -9.92 -17.37 -30.07 -6.28 0 0 47.87zm43.86 -17.66c0,11.75 7.73,18.54 16.42,18.54 8.68,0 16.42,-6.79 16.42,-18.54 0,-11.89 -7.74,-18.68 -16.42,-18.68 -8.69,0 -16.42,6.79 -16.42,18.68zm6.2 0c0,-8.17 4.16,-13.71 10.22,-13.71 6.13,0 10.21,5.54 10.21,13.71 0,8.1 -4.08,13.58 -10.21,13.58 -6.06,0 -10.22,-5.48 -10.22,-13.58zm53.78 -25.1c2.34,0 4.16,-1.6 4.16,-3.87 0,-2.33 -1.82,-3.86 -4.16,-3.86 -2.33,0 -4.16,1.53 -4.16,3.86 0,2.27 1.83,3.87 4.16,3.87zm-3.06 42.76l5.98 0 0 -35.46 -5.98 0 0 35.46zm17.95 0l5.98 0 0 -25.68c3.29,-3.65 6.28,-5.48 8.91,-5.48 4.52,0 6.64,2.85 6.64,9.49l0 21.67 5.98 0 0 -25.68c3.28,-3.65 6.13,-5.48 8.9,-5.48 4.45,0 6.57,2.85 6.57,9.49l0 21.67 5.98 0 0 -22.47c0,-9.05 -3.5,-13.87 -10.8,-13.87 -4.3,0 -7.95,2.78 -11.67,6.79 -1.46,-4.23 -4.38,-6.79 -9.78,-6.79 -4.23,0 -7.95,2.63 -11.02,5.99l-0.22 0 -0.51 -5.11 -4.96 0 0 35.46zm58.74 -9.19c0,6.35 4.45,10.07 10.44,10.07 4.38,0 8.32,-2.34 11.75,-5.11l0.14 0 0.51 4.23 4.97 0 0 -21.74c0,-8.83 -3.65,-14.6 -12.34,-14.6 -5.69,0 -10.65,2.48 -13.93,4.6l2.4 4.16c2.78,-1.9 6.43,-3.79 10.58,-3.79 5.77,0 7.3,4.37 7.3,8.9 -15.1,1.68 -21.82,5.54 -21.82,13.28zm5.91 -0.44c0,-4.52 4.02,-7.44 15.91,-8.9l0 9.85c-3.43,3.07 -6.27,4.74 -9.7,4.74 -3.51,0 -6.21,-1.67 -6.21,-5.69zm35.76 15.62c0,-2.05 1.09,-4.16 3.65,-5.99 1.53,0.44 3.21,0.59 4.6,0.59l6.13 0c4.59,0 7.15,1.09 7.15,4.38 0,3.72 -4.45,7.22 -11.24,7.22 -6.42,0 -10.29,-2.41 -10.29,-6.2zm-5.25 0.8c0,6.13 5.98,9.56 14.66,9.56 11.02,0 17.96,-5.69 17.96,-12.26 0,-5.91 -4.16,-8.46 -12.41,-8.46l-6.86 0c-4.82,0 -6.28,-1.61 -6.28,-3.87 0,-1.97 1.03,-3.14 2.27,-4.23 1.6,0.8 3.57,1.24 5.32,1.24 7.23,0 12.99,-4.75 12.99,-12.34 0,-2.99 -1.24,-5.69 -2.92,-7.29l7.3 0 0 -4.6 -12.33 0c-1.31,-0.51 -3.07,-0.88 -5.04,-0.88 -7.22,0 -13.35,4.89 -13.35,12.63 0,4.23 2.26,7.66 4.6,9.56l0 0.29c-1.83,1.24 -3.87,3.57 -3.87,6.57 0,2.77 1.39,4.67 3.14,5.76l0 0.29c-3.21,2.19 -5.18,5.04 -5.18,8.03zm14.66 -22.04c-4.08,0 -7.51,-3.28 -7.51,-8.46 0,-5.18 3.35,-8.25 7.51,-8.25 4.16,0 7.52,3.07 7.52,8.25 0,5.18 -3.43,8.46 -7.52,8.46zm21.17 -2.41c0,11.61 7.51,18.54 17,18.54 4.82,0 8.61,-1.68 11.67,-3.65l-2.11 -3.94c-2.63,1.68 -5.47,2.77 -8.83,2.77 -6.79,0 -11.39,-4.81 -11.82,-12.47l23.93 0c0.15,-0.88 0.22,-2.05 0.22,-3.29 0,-10.14 -5.11,-16.64 -14.16,-16.64 -8.1,0 -15.9,7.08 -15.9,18.68zm5.83 -2.7c0.73,-7.15 5.26,-11.23 10.22,-11.23 5.55,0 8.76,4.01 8.76,11.23l-18.98 0zm45.98 11.17c0,6.35 4.45,10.07 10.43,10.07 4.38,0 8.32,-2.34 11.75,-5.11l0.15 0 0.51 4.23 4.96 0 0 -21.74c0,-8.83 -3.65,-14.6 -12.33,-14.6 -5.69,0 -10.66,2.48 -13.94,4.6l2.41 4.16c2.77,-1.9 6.42,-3.79 10.58,-3.79 5.76,0 7.3,4.37 7.3,8.9 -15.11,1.68 -21.82,5.54 -21.82,13.28zm5.91 -0.44c0,-4.52 4.01,-7.44 15.91,-8.9l0 9.85c-3.43,3.07 -6.28,4.74 -9.71,4.74 -3.5,0 -6.2,-1.67 -6.2,-5.69zm40.86 9.63l7.01 0 12.55 -35.46 -5.91 0 -6.71 20.14c-1.03,3.5 -2.19,7.08 -3.22,10.43l-0.29 0c-1.09,-3.35 -2.26,-6.93 -3.28,-10.43l-6.71 -20.14 -6.21 0 12.77 35.46zm23.21 -9.19c0,6.35 4.45,10.07 10.43,10.07 4.38,0 8.32,-2.34 11.75,-5.11l0.15 0 0.51 4.23 4.96 0 0 -21.74c0,-8.83 -3.65,-14.6 -12.33,-14.6 -5.69,0 -10.66,2.48 -13.94,4.6l2.41 4.16c2.77,-1.9 6.42,-3.79 10.58,-3.79 5.76,0 7.3,4.37 7.3,8.9 -15.11,1.68 -21.82,5.54 -21.82,13.28zm5.91 -0.44c0,-4.52 4.01,-7.44 15.91,-8.9l0 9.85c-3.43,3.07 -6.28,4.74 -9.71,4.74 -3.5,0 -6.2,-1.67 -6.2,-5.69zm36.27 -33.13c2.33,0 4.16,-1.6 4.16,-3.87 0,-2.33 -1.83,-3.86 -4.16,-3.86 -2.34,0 -4.16,1.53 -4.16,3.86 0,2.27 1.82,3.87 4.16,3.87zm-3.07 42.76l5.99 0 0 -35.46 -5.99 0 0 35.46zm17.95 -7.15c0,5.18 1.83,8.03 6.35,8.03 1.61,0 2.63,-0.22 3.43,-0.58l-0.8 -4.53c-0.66,0.15 -0.95,0.15 -1.31,0.15 -0.88,0 -1.68,-0.73 -1.68,-2.63l0 -45.24 -5.99 0 0 44.8zm16.86 -2.04c0,6.35 4.45,10.07 10.44,10.07 4.37,0 8.31,-2.34 11.74,-5.11l0.15 0 0.51 4.23 4.96 0 0 -21.74c0,-8.83 -3.65,-14.6 -12.33,-14.6 -5.69,0 -10.65,2.48 -13.94,4.6l2.41 4.16c2.77,-1.9 6.42,-3.79 10.58,-3.79 5.77,0 7.3,4.37 7.3,8.9 -15.11,1.68 -21.82,5.54 -21.82,13.28zm5.91 -0.44c0,-4.52 4.01,-7.44 15.91,-8.9l0 9.85c-3.43,3.07 -6.28,4.74 -9.71,4.74 -3.5,0 -6.2,-1.67 -6.2,-5.69zm33.2 9.63l4.82 0 0.51 -3.5 0.22 0c3.14,2.77 6.86,4.38 10.14,4.38 8.1,0 15.33,-7.08 15.33,-19.19 0,-10.95 -4.89,-18.03 -14.09,-18.03 -3.94,0 -7.88,2.12 -11.09,4.97l0.15 -6.43 0 -14.15 -5.99 0 0 51.95zm5.99 -7.88l0 -18.61c3.35,-3.13 6.49,-4.81 9.48,-4.81 6.72,0 9.34,5.25 9.34,13.06 0,8.76 -4.3,14.08 -10.14,14.08 -2.33,0 -5.55,-1.02 -8.68,-3.72zm34.51 0.73c0,5.18 1.83,8.03 6.35,8.03 1.61,0 2.63,-0.22 3.43,-0.58l-0.8 -4.53c-0.66,0.15 -0.95,0.15 -1.31,0.15 -0.88,0 -1.68,-0.73 -1.68,-2.63l0 -45.24 -5.99 0 0 44.8zm15.98 -10.51c0,11.61 7.52,18.54 17.01,18.54 4.81,0 8.61,-1.68 11.67,-3.65l-2.11 -3.94c-2.63,1.68 -5.48,2.77 -8.83,2.77 -6.79,0 -11.39,-4.81 -11.82,-12.47l23.93 0c0.15,-0.88 0.22,-2.05 0.22,-3.29 0,-10.14 -5.11,-16.64 -14.16,-16.64 -8.1,0 -15.91,7.08 -15.91,18.68zm5.84 -2.7c0.73,-7.15 5.26,-11.23 10.22,-11.23 5.54,0 8.76,4.01 8.76,11.23l-18.98 0z"/>
 </g>
</svg>
