<?xml version="1.0" encoding="UTF-8"?>
<!DOCTYPE svg PUBLIC "-//W3C//DTD SVG 1.1//EN" "http://www.w3.org/Graphics/SVG/1.1/DTD/svg11.dtd">
<!-- Creator: CorelDRAW 2021 (64-Bit) -->
<svg xmlns="http://www.w3.org/2000/svg" xml:space="preserve" width="253px" height="71px" version="1.1" style="shape-rendering:geometricPrecision; text-rendering:geometricPrecision; image-rendering:optimizeQuality; fill-rule:evenodd; clip-rule:evenodd"
viewBox="0 0 141.98 39.68"
 xmlns:xlink="http://www.w3.org/1999/xlink">
 <defs>
  <style type="text/css">
   <![CDATA[
    .fil1 {fill:#FFCC00}
    .fil2 {fill:#1E1E1E;fill-rule:nonzero}
    .fil0 {fill:white;fill-rule:nonzero}
   ]]>
  </style>
 </defs>
 <g id="Capa_x0020_1">
  <metadata id="CorelCorpID_0Corel-Layer"/>
  <path class="fil0" d="M0 39.01l7.51 0 0.78 -3.03 0.23 0c2.13,2.47 4.6,3.7 7.06,3.7 5.94,0 11.66,-5.49 11.66,-15.19 0,-8.57 -4.32,-14.18 -10.93,-14.18 -2.47,0 -4.93,1.01 -6.89,2.81l0.22 -4.04 0 -9.08 -9.64 0 0 39.01zm9.64 -8.52l0 -10.31c1.23,-1.46 2.35,-2.02 3.81,-2.02 2.58,0 3.92,1.91 3.92,6.5 0,5.38 -1.9,7.18 -4.14,7.18 -1.24,0 -2.47,-0.34 -3.59,-1.35zm18.23 -5.49c0,9.3 6.73,14.68 13.9,14.68 7.18,0 13.9,-5.38 13.9,-14.68 0,-9.31 -6.72,-14.69 -13.9,-14.69 -7.17,0 -13.9,5.38 -13.9,14.69zm9.87 0c0,-4.26 1.12,-6.95 4.03,-6.95 2.92,0 4.04,2.69 4.04,6.95 0,4.26 -1.12,6.95 -4.04,6.95 -2.91,0 -4.03,-2.69 -4.03,-6.95zm18.34 0c0,9.3 6.73,14.68 13.9,14.68 7.18,0 13.9,-5.38 13.9,-14.68 0,-9.31 -6.72,-14.69 -13.9,-14.69 -7.17,0 -13.9,5.38 -13.9,14.69zm9.87 0c0,-4.26 1.12,-6.95 4.03,-6.95 2.92,0 4.04,2.69 4.04,6.95 0,4.26 -1.12,6.95 -4.04,6.95 -2.91,0 -4.03,-2.69 -4.03,-6.95zm19.8 14.01l9.42 0 0 -6.73 2.91 -3.25 5.61 9.98 10.42 0 -10.54 -16.37 9.98 -11.65 -10.42 0 -7.74 9.75 -0.22 0 0 -20.74 -9.42 0 0 39.01z"/>
  <circle class="fil1" cx="127.29" cy="23.81" r="14.69"/>
  <path class="fil2" d="M119.48 26.32c0,2.62 1.15,4.37 3.94,4.37 1.18,0 1.97,-0.21 2.53,-0.38l-0.56 -2.66c-0.26,0.09 -0.6,0.17 -0.94,0.17 -0.69,0 -1.29,-0.38 -1.29,-1.56l0 -3.67 2.45 0 0 -2.87 -2.45 0 0 -2.79 -3.04 0 -0.43 2.79 -1.63 0.13 0 2.74 1.42 0 0 3.73zm9.41 4.12l4.25 0 3.38 -10.72 -3.51 0 -1.16 4.67c-0.26,1.07 -0.52,2.19 -0.77,3.35l-0.09 0c-0.26,-1.16 -0.51,-2.28 -0.77,-3.35l-1.16 -4.67 -3.68 0 3.51 10.72z"/>
 </g>
</svg>
